<svg data-logo="logo" xmlns="http://www.w3.org/2000/svg" viewBox="0 0 250 43">
        <g id="logogram" transform="translate(0, 1) rotate(0)" style="opacity: 1;"><path d="M46.9107 40.08H63.0578L23.058 0.0799561H6.91068L46.9107 40.08Z" fill="#34A85A"></path><path d="M31.3536 0.0799581L69.9128 38.6391V0.0799561H59.478V12.2538L47.3041 0.0799561L31.3536 0.0799581Z" fill="#66D9EF"></path><path d="M0.150879 1.41904V40.0798H10.5857V27.9058L22.7595 40.0798H38.8117L0.150879 1.41904Z" fill="#4682B4"></path></g>
        <g id="logotype" transform="translate(76, 1.5)" style="opacity: 1;"><path fill="#6495ed" d="M15.38 33.42L15.38 33.42Q12.34 33.42 10.08 31.97Q7.82 30.52 6.98 28.03L6.98 28.03L10.41 26.38Q11.14 27.99 12.46 28.91Q13.77 29.81 15.38 29.81L15.38 29.81Q16.64 29.81 17.38 29.25Q18.11 28.70 18.11 27.79L18.11 27.79Q18.11 27.23 17.81 26.86Q17.52 26.49 17.01 26.23Q16.50 25.96 15.91 25.79L15.91 25.79L12.79 24.91Q10.38 24.21 9.13 22.78Q7.89 21.34 7.89 19.38L7.89 19.38Q7.89 17.63 8.78 16.32Q9.68 15.01 11.27 14.27Q12.86 13.54 14.93 13.54L14.93 13.54Q17.62 13.54 19.69 14.83Q21.75 16.13 22.63 18.47L22.63 18.47L19.13 20.12Q18.64 18.82 17.48 18.05Q16.33 17.28 14.89 17.28L14.89 17.28Q13.73 17.28 13.07 17.81Q12.41 18.34 12.41 19.17L12.41 19.17Q12.41 19.70 12.69 20.09Q12.96 20.47 13.47 20.71Q13.98 20.96 14.65 21.17L14.65 21.17L17.69 22.08Q20.04 22.78 21.31 24.18Q22.59 25.58 22.59 27.61L22.59 27.61Q22.59 29.32 21.68 30.64Q20.77 31.95 19.16 32.69Q17.55 33.42 15.38 33.42ZM30.71 40L26.13 40L26.13 13.96L30.43 13.96L30.43 17.74L30.01 16.79Q30.99 15.25 32.67 14.40Q34.35 13.54 36.56 13.54L36.56 13.54Q39.25 13.54 41.42 14.87Q43.59 16.20 44.87 18.44Q46.15 20.68 46.15 23.48L46.15 23.48Q46.15 26.24 44.89 28.52Q43.63 30.80 41.46 32.11Q39.29 33.42 36.52 33.42L36.52 33.42Q34.46 33.42 32.72 32.60Q30.99 31.77 29.98 30.23L29.98 30.23L30.71 29.32L30.71 40ZM36.00 29.22L36.00 29.22Q37.57 29.22 38.80 28.48Q40.02 27.75 40.70 26.45Q41.39 25.16 41.39 23.48L41.39 23.48Q41.39 21.80 40.70 20.52Q40.02 19.24 38.80 18.49Q37.57 17.74 36.00 17.74L36.00 17.74Q34.49 17.74 33.28 18.47Q32.08 19.21 31.39 20.52Q30.71 21.84 30.71 23.48L30.71 23.48Q30.71 25.16 31.39 26.45Q32.08 27.75 33.28 28.48Q34.49 29.22 36.00 29.22ZM54.23 33L49.65 33L49.65 13.96L54.23 13.96L54.23 33ZM54.23 11.82L49.65 11.82L49.65 6.92L54.23 6.92L54.23 11.82ZM63.05 33L58.47 33L58.47 13.96L62.77 13.96L62.77 17.70L62.42 17.04Q63.09 15.32 64.61 14.43Q66.13 13.54 68.16 13.54L68.16 13.54Q70.26 13.54 71.89 14.45Q73.52 15.36 74.43 16.99Q75.34 18.61 75.34 20.75L75.34 20.75L75.34 33L70.75 33L70.75 21.84Q70.75 20.57 70.26 19.66Q69.77 18.75 68.91 18.25Q68.06 17.74 66.90 17.74L66.90 17.74Q65.78 17.74 64.91 18.25Q64.03 18.75 63.54 19.66Q63.05 20.57 63.05 21.84L63.05 21.84L63.05 33ZM83.81 33L79.22 33L79.22 13.96L83.53 13.96L83.53 17.70L83.18 17.04Q83.84 15.32 85.36 14.43Q86.89 13.54 88.92 13.54L88.92 13.54Q91.02 13.54 92.64 14.45Q94.27 15.36 95.18 16.99Q96.09 18.61 96.09 20.75L96.09 20.75L96.09 33L91.51 33L91.51 21.84Q91.51 20.57 91.02 19.66Q90.53 18.75 89.67 18.25Q88.81 17.74 87.66 17.74L87.66 17.74Q86.54 17.74 85.66 18.25Q84.79 18.75 84.30 19.66Q83.81 20.57 83.81 21.84L83.81 21.84L83.81 33ZM104.56 33L99.98 33L99.98 13.96L104.56 13.96L104.56 33ZM104.56 11.82L99.98 11.82L99.98 6.92L104.56 6.92L104.56 11.82ZM113.38 33L108.80 33L108.80 13.96L113.10 13.96L113.10 17.70L112.75 17.04Q113.41 15.32 114.94 14.43Q116.46 13.54 118.49 13.54L118.49 13.54Q120.59 13.54 122.22 14.45Q123.84 15.36 124.75 16.99Q125.66 18.61 125.66 20.75L125.66 20.75L125.66 33L121.08 33L121.08 21.84Q121.08 20.57 120.59 19.66Q120.10 18.75 119.24 18.25Q118.38 17.74 117.23 17.74L117.23 17.74Q116.11 17.74 115.23 18.25Q114.36 18.75 113.87 19.66Q113.38 20.57 113.38 21.84L113.38 21.84L113.38 33ZM136.34 33L131.72 33L131.72 28.10L136.34 28.10L136.34 33ZM146.17 33L141.03 33L150.02 6.92L156.18 6.92L165.18 33L160.00 33L158.14 27.40L148.06 27.40L146.17 33ZM153.77 10.21L149.43 23.20L156.78 23.20L152.44 10.21L153.77 10.21ZM172.84 33L168.09 33L168.09 6.92L172.84 6.92L172.84 33Z"></path></g>
        
      </svg>